<?xml version="1.0" encoding="UTF-8" standalone="no"?>
<!-- Created with Inkscape (http://www.inkscape.org/) -->

<svg
   xmlns:dc="http://purl.org/dc/elements/1.1/"
   xmlns:cc="http://creativecommons.org/ns#"
   xmlns:rdf="http://www.w3.org/1999/02/22-rdf-syntax-ns#"
   xmlns:svg="http://www.w3.org/2000/svg"
   xmlns="http://www.w3.org/2000/svg"
   xmlns:sodipodi="http://sodipodi.sourceforge.net/DTD/sodipodi-0.dtd"
   xmlns:inkscape="http://www.inkscape.org/namespaces/inkscape"
   width="85.720001mm"
   height="54.029999mm"
   viewBox="0 0 85.720001 54.029999"
   version="1.1"
   id="svg8"
   inkscape:version="0.92.3 (2405546, 2018-03-11)"
   sodipodi:docname="igls-membercard-0005.svg">
  <title
     id="title4520">IGLS Membercard</title>
  <defs
     id="defs2" />
  <sodipodi:namedview
     id="base"
     pagecolor="#ffffff"
     bordercolor="#666666"
     borderopacity="1.0"
     inkscape:pageopacity="0.0"
     inkscape:pageshadow="2"
     inkscape:zoom="2.8284271"
     inkscape:cx="151.66629"
     inkscape:cy="62.359862"
     inkscape:document-units="mm"
     inkscape:current-layer="layer1"
     showgrid="false"
     inkscape:pagecheckerboard="false"
     inkscape:showpageshadow="false"
     width="85.72mm"
     inkscape:window-width="1920"
     inkscape:window-height="1015"
     inkscape:window-x="0"
     inkscape:window-y="0"
     inkscape:window-maximized="1"
     objecttolerance="10000"
     guidetolerance="10000"
     inkscape:snap-perpendicular="true"
     inkscape:snap-tangential="true"
     borderlayer="true">
    <inkscape:grid
       type="xygrid"
       id="grid4518"
       units="mm"
       spacingx="0.5"
       spacingy="0.5"
       dotted="false" />
  </sodipodi:namedview>
  <metadata
     id="metadata5">
    <rdf:RDF>
      <cc:Work
         rdf:about="">
        <dc:format>image/svg+xml</dc:format>
        <dc:type
           rdf:resource="http://purl.org/dc/dcmitype/StillImage" />
        <dc:title>IGLS Membercard</dc:title>
        <dc:creator>
          <cc:Agent>
            <dc:title>Tobias Frei</dc:title>
          </cc:Agent>
        </dc:creator>
        <dc:rights>
          <cc:Agent>
            <dc:title>Public Domain</dc:title>
          </cc:Agent>
        </dc:rights>
        <dc:date>2019-03-16</dc:date>
        <cc:license
           rdf:resource="http://creativecommons.org/publicdomain/zero/1.0/" />
      </cc:Work>
      <cc:License
         rdf:about="http://creativecommons.org/publicdomain/zero/1.0/">
        <cc:permits
           rdf:resource="http://creativecommons.org/ns#Reproduction" />
        <cc:permits
           rdf:resource="http://creativecommons.org/ns#Distribution" />
        <cc:permits
           rdf:resource="http://creativecommons.org/ns#DerivativeWorks" />
      </cc:License>
    </rdf:RDF>
  </metadata>
  <g
     inkscape:label="Ebene 1"
     inkscape:groupmode="layer"
     id="layer1"
     transform="translate(0,-242.97)">
    <text
       xml:space="preserve"
       style="font-style:normal;font-variant:normal;font-weight:normal;font-stretch:normal;font-size:16.93333244px;line-height:1.25;font-family:'Linux Biolinum';-inkscape-font-specification:'Linux Biolinum';text-align:end;letter-spacing:0px;word-spacing:0px;text-anchor:end;fill:#000000;fill-opacity:1;stroke:none;stroke-width:0.26458332"
       x="79.010384"
       y="259.298"
       id="text4524"><tspan
         sodipodi:role="line"
         id="tspan4522"
         x="79.010384"
         y="259.298"
         style="font-style:normal;font-variant:normal;font-weight:bold;font-stretch:normal;font-family:'Linux Biolinum';-inkscape-font-specification:'Linux Biolinum Bold';text-align:end;text-anchor:end;stroke-width:0.26458332">IGLS</tspan></text>
    <text
       xml:space="preserve"
       style="font-style:normal;font-variant:normal;font-weight:normal;font-stretch:normal;font-size:5.64444447px;line-height:1;font-family:'Linux Biolinum';-inkscape-font-specification:'Linux Biolinum';text-align:end;letter-spacing:0px;word-spacing:0px;text-anchor:end;fill:#000000;fill-opacity:1;stroke:none;stroke-width:0.26458332"
       x="78.395775"
       y="266.11032"
       id="text4550"><tspan
         sodipodi:role="line"
         x="78.395775"
         y="266.11032"
         style="font-style:normal;font-variant:normal;font-weight:normal;font-stretch:normal;font-family:'Linux Biolinum';-inkscape-font-specification:'Linux Biolinum';text-align:end;text-anchor:end;stroke-width:0.26458332"
         id="tspan4552">Gold Membercard</tspan></text>
    <text
       xml:space="preserve"
       style="font-style:normal;font-variant:normal;font-weight:normal;font-stretch:normal;font-size:8.46666622px;line-height:1.25;font-family:'Linux Biolinum';-inkscape-font-specification:'Linux Biolinum';text-align:center;letter-spacing:0px;word-spacing:0px;text-anchor:middle;fill:#000000;fill-opacity:1;stroke:none;stroke-width:0.26458332"
       x="44.432648"
       y="277.10669"
       id="text4543"><tspan
         sodipodi:role="line"
         id="tspan4541"
         x="44.432648"
         y="277.10669"
         style="font-style:normal;font-variant:normal;font-weight:normal;font-stretch:normal;font-size:8.46666622px;font-family:'Linux Biolinum';-inkscape-font-specification:'Linux Biolinum';text-align:center;text-anchor:middle;stroke-width:0.26458332">4213 3704 6692 5071</tspan></text>
    <g
       id="g4685">
      <rect
         ry="1.0000006"
         rx="1.0000006"
         y="259.5"
         x="10"
         height="10"
         width="12.5"
         id="rect4553"
         style="fill:none;fill-opacity:1;stroke:#000000;stroke-width:0.1;stroke-miterlimit:4;stroke-dasharray:none;stroke-opacity:1" />
      <path
         inkscape:connector-curvature="0"
         id="path4577"
         d="M 20,269.5 V 262"
         style="fill:none;stroke:#000000;stroke-width:0.1;stroke-linecap:butt;stroke-linejoin:miter;stroke-opacity:1;stroke-miterlimit:4;stroke-dasharray:none" />
      <path
         inkscape:connector-curvature="0"
         id="path4579"
         d="M 22.5,262 H 20"
         style="fill:none;stroke:#000000;stroke-width:0.1;stroke-linecap:butt;stroke-linejoin:miter;stroke-opacity:1;stroke-miterlimit:4;stroke-dasharray:none" />
      <path
         inkscape:connector-curvature="0"
         id="path4581"
         d="M 22.5,264.5 H 20"
         style="fill:none;stroke:#000000;stroke-width:0.1;stroke-linecap:butt;stroke-linejoin:miter;stroke-opacity:1;stroke-miterlimit:4;stroke-dasharray:none" />
      <path
         inkscape:connector-curvature="0"
         id="path4583"
         d="M 22.5,267 H 20"
         style="fill:none;stroke:#000000;stroke-width:0.1;stroke-linecap:butt;stroke-linejoin:miter;stroke-opacity:1;stroke-miterlimit:4;stroke-dasharray:none" />
      <path
         inkscape:connector-curvature="0"
         id="path4585"
         d="m 12.5,269.5 v -10"
         style="fill:none;stroke:#000000;stroke-width:0.1;stroke-linecap:butt;stroke-linejoin:miter;stroke-opacity:1;stroke-miterlimit:4;stroke-dasharray:none" />
      <path
         inkscape:connector-curvature="0"
         id="path4587"
         d="m 10,262 h 2.5"
         style="fill:none;stroke:#000000;stroke-width:0.1;stroke-linecap:butt;stroke-linejoin:miter;stroke-opacity:1;stroke-miterlimit:4;stroke-dasharray:none" />
      <path
         inkscape:connector-curvature="0"
         id="path4591"
         d="m 10,264.5 h 2.5"
         style="fill:none;stroke:#000000;stroke-width:0.1;stroke-linecap:butt;stroke-linejoin:miter;stroke-opacity:1;stroke-miterlimit:4;stroke-dasharray:none" />
      <path
         inkscape:connector-curvature="0"
         id="path4593"
         d="m 10,267 h 2.5"
         style="fill:none;stroke:#000000;stroke-width:0.1;stroke-linecap:butt;stroke-linejoin:miter;stroke-opacity:1;stroke-miterlimit:4;stroke-dasharray:none" />
    </g>
    <text
       xml:space="preserve"
       style="font-style:normal;font-variant:normal;font-weight:normal;font-stretch:normal;font-size:1.41111112px;line-height:1.25;font-family:'Linux Biolinum';-inkscape-font-specification:'Linux Biolinum';text-align:start;letter-spacing:0px;word-spacing:0px;text-anchor:start;fill:#000000;fill-opacity:1;stroke:none;stroke-width:0.26458332"
       x="44.668213"
       y="288.55569"
       id="text4616"><tspan
         sodipodi:role="line"
         id="tspan4614"
         x="44.668213"
         y="288.55569"
         style="font-style:normal;font-variant:normal;font-weight:normal;font-stretch:normal;font-size:1.41111112px;font-family:'Linux Biolinum';-inkscape-font-specification:'Linux Biolinum';text-align:start;text-anchor:start;stroke-width:0.26458332">MÖN     /     YÄR ÄÜC</tspan></text>
    <text
       xml:space="preserve"
       style="font-style:normal;font-variant:normal;font-weight:normal;font-stretch:normal;font-size:1.41111112px;line-height:1;font-family:'Linux Biolinum';-inkscape-font-specification:'Linux Biolinum';text-align:end;letter-spacing:0px;word-spacing:0px;text-anchor:end;fill:#000000;fill-opacity:1;stroke:none;stroke-width:0.26458332"
       x="44.191319"
       y="290.56329"
       id="text4620"><tspan
         sodipodi:role="line"
         x="44.191319"
         y="290.56329"
         style="font-size:1.41111112px;line-height:1;text-align:end;text-anchor:end;stroke-width:0.26458332"
         id="tspan4622">VÄLID</tspan><tspan
         sodipodi:role="line"
         x="44.191319"
         y="291.9744"
         style="font-size:1.41111112px;line-height:1;text-align:end;text-anchor:end;stroke-width:0.26458332"
         id="tspan4626">THRÜ</tspan></text>
    <text
       xml:space="preserve"
       style="font-style:normal;font-variant:normal;font-weight:normal;font-stretch:normal;font-size:4.23333311px;line-height:1.25;font-family:'Linux Biolinum';-inkscape-font-specification:'Linux Biolinum';text-align:start;letter-spacing:0px;word-spacing:0px;text-anchor:start;fill:#000000;fill-opacity:1;stroke:none;stroke-width:0.26458332"
       x="44.504227"
       y="291.73807"
       id="text4630"><tspan
         sodipodi:role="line"
         id="tspan4628"
         x="44.504227"
         y="291.73807"
         style="text-align:start;text-anchor:start;stroke-width:0.26458332">01/2803</tspan></text>
    <path
       style="fill:#000000;fill-opacity:1;stroke:none;stroke-width:0.1;stroke-miterlimit:4;stroke-dasharray:none;stroke-opacity:1"
       d="m 64.977385,281.98776 c -0.554,0 -0.99994,0.44646 -0.99994,1.00046 v 8.00002 c 0,0.554 0.44594,0.99994 0.99994,0.99994 h 13.000238 c 0.554001,0 0.99994,-0.44594 0.99994,-0.99994 v -8.00002 c 0,-0.554 -0.445939,-1.00046 -0.99994,-1.00046 z m 4.167188,3.021 c 0.0248,0 0.0379,0.0145 0.03927,0.0434 -0.0248,0.34176 -0.0379,0.60703 -0.03927,0.79582 v 1.26917 c 0,0.37759 0.01309,0.66008 0.03927,0.8475 l -0.01034,0.0124 c -0.05099,-0.008 -0.117134,-0.0124 -0.198438,-0.0124 -0.0813,0 -0.147449,0.004 -0.198437,0.0124 l -0.0083,-0.0124 c 0.0248,-0.18053 0.03721,-0.46302 0.03721,-0.8475 v -1.19269 c 0,-0.40376 -0.0124,-0.67593 -0.03721,-0.81649 l 0.0083,-0.0145 c 0.12678,-0.008 0.249425,-0.0365 0.367938,-0.0847 z m -3.373438,0.21291 c 0.0565,0 0.106796,0.0221 0.150895,0.0661 0.0441,0.0427 0.06614,0.0923 0.06614,0.14883 0,0.0565 -0.02205,0.10679 -0.06614,0.15089 -0.0441,0.0441 -0.0944,0.0661 -0.150895,0.0661 -0.0565,0 -0.106799,-0.022 -0.150894,-0.0661 -0.04272,-0.0441 -0.06408,-0.0944 -0.06408,-0.15089 0,-0.0565 0.02136,-0.10611 0.06408,-0.14883 0.04409,-0.0441 0.09439,-0.0661 0.150894,-0.0661 z m 7.007323,0.10956 c 0.05374,0 0.09991,0.02 0.138493,0.0599 0.03996,0.0386 0.05994,0.0861 0.05994,0.14263 0,0.0565 -0.01998,0.10404 -0.05994,0.14262 -0.03858,0.0386 -0.08475,0.0579 -0.138493,0.0579 -0.05374,0 -0.100597,-0.0193 -0.14056,-0.0579 -0.03996,-0.0386 -0.05994,-0.0861 -0.05994,-0.14262 0,-0.0565 0.01998,-0.10404 0.05994,-0.14263 0.03996,-0.04 0.08682,-0.0599 0.14056,-0.0599 z m 0.715203,0 c 0.05374,0 0.09991,0.02 0.138494,0.0599 0.03996,0.0386 0.05994,0.0861 0.05994,0.14263 0,0.0565 -0.01929,0.10404 -0.05788,0.14262 -0.03721,0.0386 -0.08406,0.0579 -0.14056,0.0579 -0.0565,0 -0.104042,-0.0193 -0.142626,-0.0579 -0.03859,-0.0386 -0.05788,-0.0861 -0.05788,-0.14262 0,-0.0565 0.01998,-0.10404 0.05994,-0.14263 0.03996,-0.04 0.08681,-0.0599 0.14056,-0.0599 z m -5.297868,0.73173 0.0124,0.0145 c -0.0083,0.04 -0.0124,0.0765 -0.0124,0.10956 0,0.0331 0.0041,0.0696 0.0124,0.10955 l -0.0124,0.0124 c -0.263205,-0.0276 -0.409967,-0.042 -0.440283,-0.0434 0.141938,0.0937 0.212908,0.25769 0.212908,0.49195 0,0.17502 -0.06477,0.32384 -0.194305,0.44649 -0.128156,0.12264 -0.297656,0.18397 -0.508495,0.18397 -0.135049,0 -0.239779,-0.0193 -0.314193,-0.0579 -0.07579,0.0648 -0.113688,0.14332 -0.113688,0.23564 0,0.0813 0.02136,0.13505 0.06408,0.16123 0.0441,0.0262 0.10473,0.0393 0.181901,0.0393 0.0028,0 0.04341,-0.003 0.121954,-0.008 0.107487,-0.0138 0.220488,-0.0214 0.338998,-0.0227 0.288009,0 0.487137,0.0469 0.597381,0.14056 0.11851,0.10198 0.177766,0.24185 0.177766,0.41962 0,0.19981 -0.09508,0.36173 -0.285253,0.48575 -0.188793,0.12403 -0.445108,0.18604 -0.768945,0.18604 -0.239779,0 -0.435462,-0.04 -0.587044,-0.11989 -0.150207,-0.0799 -0.225311,-0.19913 -0.225311,-0.3576 0,-0.0868 0.03238,-0.17984 0.09715,-0.27905 0.124023,-0.0965 0.243914,-0.16812 0.359669,-0.21498 -0.108865,-0.0193 -0.191547,-0.062 -0.248047,-0.12816 -0.05512,-0.0661 -0.08268,-0.14538 -0.08268,-0.23771 0,-0.11024 0.09026,-0.22737 0.270783,-0.3514 -0.199816,-0.11575 -0.299723,-0.29214 -0.299723,-0.52916 0,-0.19706 0.07373,-0.35347 0.221176,-0.46923 0.148828,-0.11575 0.31488,-0.17363 0.49816,-0.17363 0.09509,0 0.181213,0.0124 0.258381,0.0372 0.119891,-0.007 0.250116,-0.0207 0.390676,-0.0413 0.14056,-0.0221 0.232886,-0.0351 0.276985,-0.0393 z m 2.164209,0.0434 c 0.217728,0 0.407898,0.042 0.570508,0.12609 l 0.0083,0.0145 -0.08475,0.31213 -0.05788,0.004 c -0.05374,-0.062 -0.09371,-0.10611 -0.119891,-0.13229 -0.0248,-0.0276 -0.06959,-0.0599 -0.134358,-0.0972 -0.06477,-0.0386 -0.130913,-0.0579 -0.198437,-0.0579 -0.09371,0 -0.170879,0.0234 -0.231511,0.0703 -0.06063,0.0455 -0.09095,0.11093 -0.09095,0.19637 0,0.15848 0.130913,0.26872 0.392739,0.33073 0.175012,0.0427 0.314884,0.10611 0.419614,0.19017 0.10473,0.0841 0.157096,0.20533 0.157096,0.3638 0,0.0648 -0.01103,0.12816 -0.03307,0.19017 -0.02067,0.062 -0.05581,0.12402 -0.105421,0.18604 -0.04823,0.062 -0.122644,0.11162 -0.223242,0.14882 -0.100597,0.0358 -0.219797,0.0538 -0.3576,0.0538 -0.209463,0 -0.422368,-0.0379 -0.63872,-0.11369 l 0.07028,-0.35553 0.06408,-0.004 c 0.146071,0.20257 0.312814,0.30455 0.500229,0.30593 0.115755,0 0.20946,-0.031 0.28112,-0.093 0.07166,-0.0634 0.107487,-0.14952 0.107487,-0.25838 0,-0.0965 -0.03445,-0.16812 -0.103354,-0.21498 -0.0689,-0.0469 -0.177078,-0.0896 -0.324527,-0.12816 -0.158475,-0.0427 -0.282499,-0.10197 -0.372071,-0.17776 -0.08957,-0.0772 -0.134358,-0.19155 -0.134358,-0.34313 0,-0.16399 0.06339,-0.29077 0.190169,-0.38034 0.126778,-0.0909 0.276297,-0.13643 0.448551,-0.13643 z m 2.819466,0 c 0.282499,0 0.499539,0.0854 0.651124,0.25632 0.152961,0.17087 0.229441,0.40307 0.229441,0.6966 0,0.28249 -0.08061,0.51125 -0.241845,0.68626 -0.159853,0.17363 -0.378272,0.26045 -0.655256,0.26045 -0.27423,0 -0.492649,-0.0861 -0.655257,-0.25838 -0.161231,-0.17226 -0.241847,-0.3893 -0.241847,-0.65113 0,-0.29903 0.08268,-0.53881 0.248047,-0.71933 0.166743,-0.18053 0.388606,-0.27079 0.665593,-0.27079 z m 2.298568,0 c 0.03445,0 0.08544,0.01 0.152961,0.0289 l 0.01654,0.0165 -0.08475,0.31419 -0.03307,0.008 c -0.04272,-0.04 -0.116443,-0.06 -0.221176,-0.06 -0.0937,0 -0.172254,0.0496 -0.235643,0.14883 -0.09647,0.14607 -0.144696,0.28594 -0.144696,0.41961 v 0.21911 c 0,0.31557 0.0124,0.56982 0.03721,0.76275 l -0.0083,0.0124 c -0.05099,-0.008 -0.117134,-0.0124 -0.198438,-0.0124 -0.0813,0 -0.14745,0.004 -0.198437,0.0124 l -0.0083,-0.0124 c 0.02481,-0.17501 0.03721,-0.42926 0.03721,-0.76275 v -0.23151 c 0,-0.38998 -0.0124,-0.66421 -0.03721,-0.82269 l 0.0083,-0.0124 c 0.124023,0.011 0.2384,0.007 0.34313,-0.0124 0.01654,0 0.0248,0.0145 0.0248,0.0434 v 0.38447 l 0.0124,0.008 c 0.09922,-0.1695 0.186034,-0.28732 0.260448,-0.35347 0.07441,-0.0661 0.166743,-0.0992 0.276987,-0.0992 z m 1.897557,0.0165 c 0.01516,0 0.02274,0.008 0.02274,0.0248 -0.02481,0.0276 -0.06683,0.0868 -0.12609,0.17777 l -0.971519,1.44901 c 0.152964,-0.001 0.317638,-0.006 0.494028,-0.0124 0.17639,-0.008 0.31488,-0.0158 0.415478,-0.0227 l 0.150897,-0.0124 0.0083,0.0124 c -0.0055,0.0455 -0.0083,0.0827 -0.0083,0.11162 0,0.003 0.0028,0.0406 0.0083,0.11369 l -0.0083,0.0124 c -0.06201,-0.008 -0.141251,-0.0124 -0.237712,-0.0124 h -0.95705 l -0.34313,0.0124 -0.0124,-0.0186 c 0.02067,-0.0234 0.05168,-0.0668 0.09302,-0.13023 l 0.994257,-1.48828 c -0.143317,10e-4 -0.29559,0.006 -0.456822,0.0145 -0.15985,0.008 -0.284564,0.0152 -0.374136,0.0207 l -0.134358,0.0103 -0.0083,-0.0124 c 0.0055,-0.0455 0.0083,-0.082 0.0083,-0.10955 0,-0.003 -0.0028,-0.0413 -0.0083,-0.11576 l 0.0083,-0.0124 c 0.06201,0.008 0.141247,0.0124 0.237712,0.0124 h 0.864028 c 0.03583,0 0.08062,-0.002 0.134358,-0.006 0.05374,-0.004 0.100598,-0.008 0.14056,-0.0124 0.03996,-0.004 0.06201,-0.006 0.06615,-0.006 z m -11.439093,0.008 c 0.01654,0 0.02687,0.002 0.03101,0.006 0.0055,0.004 0.0083,0.0165 0.0083,0.0372 -0.0248,0.23703 -0.0379,0.47956 -0.03927,0.72761 v 0.29972 c 0,0.3073 0.01309,0.56155 0.03927,0.76275 l -0.01034,0.0124 c -0.05099,-0.008 -0.117134,-0.0124 -0.198437,-0.0124 -0.0813,0 -0.14745,0.004 -0.198438,0.0124 l -0.0083,-0.0124 c 0.02481,-0.19155 0.03721,-0.4458 0.03721,-0.76275 v -0.23151 c 0,-0.37482 -0.0124,-0.64905 -0.03721,-0.82269 l 0.0083,-0.0124 c 0.121269,0.008 0.243914,0.007 0.367938,-0.004 z m 1.316714,0.13642 c -0.121266,0 -0.214286,0.0413 -0.279053,0.12403 -0.06339,0.0813 -0.09508,0.19361 -0.09508,0.33693 0,0.32797 0.132979,0.49196 0.398941,0.49196 0.121267,0 0.211529,-0.042 0.270785,-0.12609 0.05926,-0.0841 0.08888,-0.195 0.08888,-0.3328 0,-0.33073 -0.128158,-0.49541 -0.384473,-0.49403 z m 5.897314,0.008 c -0.124023,0 -0.226687,0.0379 -0.307991,0.11369 -0.07993,0.0758 -0.134358,0.16674 -0.163298,0.27285 -0.02756,0.10611 -0.04134,0.22669 -0.04134,0.36174 0,0.12677 0.01378,0.24666 0.04134,0.35966 0.02894,0.113 0.0882,0.21704 0.177768,0.31213 0.09095,0.0951 0.205328,0.14263 0.343131,0.14263 0.140559,0 0.257005,-0.0662 0.349334,-0.19844 0.09233,-0.13367 0.138491,-0.30179 0.138491,-0.50436 0,-0.28526 -0.03721,-0.49954 -0.11162,-0.64286 -0.07441,-0.14469 -0.216352,-0.21704 -0.425815,-0.21704 z m -1.52342,1.25677 h 0.01654 c 0.115755,0.0427 0.192236,0.1192 0.229444,0.22944 v 0.0165 c -0.03996,0.12402 -0.116446,0.19982 -0.229444,0.22738 h -0.01654 c -0.06753,-0.0138 -0.117822,-0.0372 -0.150895,-0.0703 -0.03169,-0.0345 -0.05719,-0.0868 -0.07648,-0.1571 v -0.0165 c 0.03721,-0.10473 0.112998,-0.18121 0.227375,-0.22944 z m -4.231267,0.48369 c -0.01378,0 -0.06821,0.002 -0.163296,0.006 -0.09371,0.004 -0.164676,0.006 -0.212907,0.006 -0.07579,0.0427 -0.14056,0.0992 -0.194305,0.16949 -0.05374,0.0703 -0.08061,0.13919 -0.08061,0.20671 0,0.13229 0.05236,0.22875 0.157096,0.28939 0.106109,0.0606 0.2384,0.0909 0.396875,0.0909 0.194302,0 0.361045,-0.0351 0.500227,-0.10542 0.140559,-0.0703 0.210841,-0.16606 0.210841,-0.28732 0,-0.13781 -0.05512,-0.23978 -0.165365,-0.30593 -0.08131,-0.0482 -0.230822,-0.0717 -0.448553,-0.0703 z"
       id="rect4661"
       inkscape:connector-curvature="0" />
    <text
       xml:space="preserve"
       style="font-style:normal;font-variant:normal;font-weight:normal;font-stretch:normal;font-size:2.11666656px;line-height:1;font-family:'Linux Biolinum';-inkscape-font-specification:'Linux Biolinum';letter-spacing:0px;word-spacing:0px;fill:#000000;fill-opacity:1;stroke:none;stroke-width:0.26458332"
       x="4.9412894"
       y="287.68909"
       id="text4670"><tspan
         sodipodi:role="line"
         id="tspan4668"
         x="4.9412894"
         y="287.68909"
         style="font-size:2.11666656px;line-height:1;stroke-width:0.26458332">nöt tränsföräbl</tspan><tspan
         sodipodi:role="line"
         x="4.9412894"
         y="289.80576"
         style="font-size:2.11666656px;line-height:1;stroke-width:0.26458332"
         id="tspan4674">nöt välid ünläss signd</tspan><tspan
         sodipodi:role="line"
         x="4.9412894"
         y="291.92242"
         style="font-size:2.11666656px;line-height:1;stroke-width:0.26458332"
         id="tspan4672">misüs is ä kriminäl öffenz</tspan></text>
  </g>
</svg>
